<?xml version="1.0" ?><svg viewBox="0 0 64 64" xmlns="http://www.w3.org/2000/svg"><defs><style>.cls-1{fill:#adadad;}.cls-2{fill:#e6e6e6;}.cls-3{fill:#c5e260;}.cls-4{fill:#b6db38;}.cls-5{fill:#ffeb71;}.cls-6{fill:#677b20;}.cls-7{fill:#85954d;}.cls-8{fill:#455215;}.cls-9{fill:none;stroke:#000;stroke-linejoin:round;stroke-width:2px;}</style></defs><title/><g data-name="Layer 20" id="Layer_20"><circle class="cls-1" cx="46" cy="46" r="16"/><ellipse class="cls-2" cx="44.5" cy="46" rx="14.5" ry="15.92"/><path class="cls-3" d="M43.5,42.5h0a8.54,8.54,0,0,0-6-2.5H36v1.46a8.54,8.54,0,0,0,2.5,6h0a8.54,8.54,0,0,0,6,2.5H46V48.54A8.54,8.54,0,0,0,43.5,42.5Z"/><path class="cls-4" d="M48.5,42.5h0a8.54,8.54,0,0,1,6-2.5H56v1.46a8.54,8.54,0,0,1-2.5,6h0a8.54,8.54,0,0,1-6,2.5H46V48.54A8.54,8.54,0,0,1,48.5,42.5Z"/><path class="cls-3" d="M48.5,42.5a8.54,8.54,0,0,0-2.5,6v1.31a8.51,8.51,0,0,0,7-8.39V40.15A8.48,8.48,0,0,0,48.5,42.5Z"/><path class="cls-5" d="M38,9h0a6.32,6.32,0,0,0,4-4h0a6.32,6.32,0,0,0,4,4h0a6.32,6.32,0,0,0-4,4h0a6.32,6.32,0,0,0-4-4Z"/><path class="cls-5" d="M54,23h0a6.32,6.32,0,0,0,4-4h0a6.32,6.32,0,0,0,4,4h0a6.32,6.32,0,0,0-4,4h0a6.32,6.32,0,0,0-4-4Z"/><polygon class="cls-6" points="4 10 6 2 30 2 32 10 4 10"/><polygon class="cls-7" points="6 2 4 10 29 10 27 2 6 2"/><rect class="cls-4" height="4" width="12" x="12" y="2"/><rect class="cls-3" height="4" width="9" x="12" y="2"/><rect class="cls-4" height="6" width="32" x="2" y="10"/><rect class="cls-3" height="6" width="29" x="2" y="10"/><polygon class="cls-6" points="30 62 6 62 4 16 32 16 30 62"/><polygon class="cls-7" points="4 16 6 62 27 62 29 16 4 16"/><polygon class="cls-4" points="31.57 26 4.43 26 5.83 58 30.17 58 31.57 26"/><polygon class="cls-3" points="4.43 26 5.83 58 27 58 28.57 26 4.43 26"/><circle class="cls-6" cx="11" cy="32" r="2"/><circle class="cls-6" cx="13" cy="50" r="2"/><circle class="cls-8" cx="23" cy="40" r="4"/><ellipse class="cls-6" cx="21.5" cy="40" rx="2.5" ry="3.7"/><polyline class="cls-9" points="30.26 56 30 62 6 62 4 16"/><line class="cls-9" x1="32" x2="31.22" y1="16" y2="34"/><rect class="cls-9" height="6" width="32" x="2" y="10"/><polyline class="cls-9" points="4 10 6 2 30 2 32 10"/><polyline class="cls-9" points="12 2 12 6 24 6 24 2"/><line class="cls-9" x1="5" x2="31" y1="26" y2="26"/><line class="cls-9" x1="6" x2="30" y1="58" y2="58"/><circle class="cls-9" cx="11" cy="32" r="2"/><circle class="cls-9" cx="23" cy="40" r="4"/><circle class="cls-9" cx="13" cy="50" r="2"/><path class="cls-9" d="M48.5,42.5h0a8.54,8.54,0,0,1,6-2.5H56v1.46a8.54,8.54,0,0,1-2.5,6h0a8.54,8.54,0,0,1-6,2.5H46V48.54A8.54,8.54,0,0,1,48.5,42.5Z"/><path class="cls-9" d="M43.5,42.5h0a8.54,8.54,0,0,0-6-2.5H36v1.46a8.54,8.54,0,0,0,2.5,6h0a8.54,8.54,0,0,0,6,2.5H46V48.54A8.54,8.54,0,0,0,43.5,42.5Z"/><line class="cls-9" x1="46" x2="46" y1="50" y2="56"/><circle class="cls-9" cx="46" cy="46" r="16"/><path class="cls-9" d="M54,23h0a6.32,6.32,0,0,0,4-4h0a6.32,6.32,0,0,0,4,4h0a6.32,6.32,0,0,0-4,4h0a6.32,6.32,0,0,0-4-4Z"/><path class="cls-9" d="M38,9h0a6.32,6.32,0,0,0,4-4h0a6.32,6.32,0,0,0,4,4h0a6.32,6.32,0,0,0-4,4h0a6.32,6.32,0,0,0-4-4Z"/></g></svg>